<?xml version="1.0" encoding="utf-8"?>
<!-- Generator: Adobe Illustrator 17.0.0, SVG Export Plug-In . SVG Version: 6.00 Build 0)  -->
<!DOCTYPE svg PUBLIC "-//W3C//DTD SVG 1.1//EN" "http://www.w3.org/Graphics/SVG/1.1/DTD/svg11.dtd">
<svg version="1.1" id="Layer_1" xmlns="http://www.w3.org/2000/svg" xmlns:xlink="http://www.w3.org/1999/xlink" x="0px" y="0px"
	 width="16.674px" height="8.859px" viewBox="0 0 16.674 8.859" enable-background="new 0 0 16.674 8.859" xml:space="preserve">
<polygon fill="#808080" points="16.672,4.429 14.115,0.002 13.061,0.002 11.557,2.613 10.055,0 8.997,0 6.444,4.428 8.996,8.849 
	9.61,7.792 7.669,4.429 9.611,1.059 11.556,4.434 13.501,1.057 15.447,4.429 15.445,4.433 16.67,4.433 "/>
<polygon fill="#50BBBD" points="0.002,0.002 0.613,1.059 0.612,4.431 1.663,4.431 1.663,1.059 4.504,1.059 6.446,4.43 4.502,7.8 
	0.612,7.797 0,8.859 5.114,8.859 7.669,4.43 5.114,0.002 "/>
</svg>
