
<svg version="1.1" id="Capa_1" xmlns="http://www.w3.org/2000/svg" xmlns:xlink="http://www.w3.org/1999/xlink" x="0px" y="0px"
	 viewBox="0 0 500 500" style="enable-background:new 0 0 500 500;" xml:space="preserve">
<style type="text/css">
	.st0{fill:none;stroke:#000000;stroke-width:10;stroke-linecap:round;stroke-linejoin:round;stroke-miterlimit:2.6131;}

	.st0 {
		stroke-dasharray: 1100;
		stroke-dashoffset: 0;
		animation: dash 10s linear infinite;

	}

	@keyframes dash {
		0% {
			stroke-dashoffset: 1200;
			stroke: #50bbbd
			}


		20%, 90%{
			stroke-dashoffset: 0;
			stroke: #000000

			}

		100% {
			stroke-dashoffset: 1200;
			stroke: #50bbbd
			}
	}


</style>


<line id="palito" class="st0" x1="250.1" y1="242.2" x2="275.9" y2="281.1"/>
<path id="medio-circulo" class="st0" d="M239.5,121.8c18.9,28.5,11.1,66.8-17.4,85.7c-15.5,10.3-33.9,12.6-50.5,8.1
	c-13.9-3.8-26.5-12.5-35.1-25.4"/>
<path id="rectan" class="st0" d="M396.7,463.4L396.7,463.4c18.6-12.4,23.7-37.5,11.4-56.1L332,292.5c-12.4-18.6-37.5-23.7-56.1-11.4
	l0,0c-18.6,12.4-23.7,37.5-11.4,56.1L340.6,452C352.9,470.7,378.1,475.7,396.7,463.4z"/>
<ellipse id="circulo" transform="matrix(0.8335 -0.5526 0.5526 0.8335 -54.8994 129.8692)" class="st0" cx="188" cy="156" rx="104.3" ry="104.3"/>


</svg>
