<?xml version="1.0" encoding="utf-8"?>
<!-- Generator: Adobe Illustrator 21.0.0, SVG Export Plug-In . SVG Version: 6.00 Build 0)  -->
<svg version="1.1" id="Capa_2" xmlns="http://www.w3.org/2000/svg" xmlns:xlink="http://www.w3.org/1999/xlink" x="0px" y="0px"
	 viewBox="0 0 500 500" style="enable-background:new 0 0 500 500;" xml:space="preserve">
<style type="text/css">
	.st0{fill:none;stroke:#000000;stroke-width:10;stroke-miterlimit:10;stroke-dasharray:1100;}
	.st1{fill:none;stroke:#000000;stroke-width:10;stroke-miterlimit:10;}


	.st1 {
		stroke-dasharray: 2100;
		stroke-dashoffset: 0;
		animation: dash 10s ease-in-out infinite;
	}

	@keyframes dash {
		0% {
			stroke-dashoffset: 2100;
			stroke: #50bbbd
			}


		20%, 90% {
			stroke-dashoffset: 0;
			stroke: #000000

			}

		100% {
			stroke-dashoffset: 2100;
			stroke: #50bbbd
			}
	}


	.st0 {
		stroke-dasharray: 2100;
		stroke-dashoffset: 0;
		animation: dash 10s ease-in-out infinite;
	}

	@keyframes dash {
		0% {
			stroke-dashoffset: 2100;
			stroke: #50bbbd
			}


		20%, 90% {
			stroke-dashoffset: 0;
			stroke: #000000

			}

		100% {
			stroke-dashoffset: 2100;
			stroke: #50bbbd
			}
	}

</style>
<polyline class="st0" points="137.6,221.2 156.2,238.5 190.4,200.7 "/>
<line class="st0" x1="222.9" y1="223.5" x2="362.4" y2="223.5"/>
<line class="st0" x1="222.9" y1="309.2" x2="362.4" y2="309.2"/>
<line class="st0" x1="222.9" y1="392.6" x2="362.4" y2="392.6"/>
<path class="st0" d="M136.6,118.8h226.9V71.5c0,0-1-20.8-20.8-20.8S287,50.6,287,50.6S289.3,25,266.4,25s-32.8,0-32.8,0
	S213,23.9,213,50.6h-55.8c0,0-20.8,1.6-20.8,20.8S136.6,118.8,136.6,118.8z"/>
<path class="st1" d="M136.6,82.7h-33.7c0,0-21.7,1.3-21.7,21.9s0,348.4,0,348.4s2.3,22,21.7,22h294.2c0,0,21.7-2,21.7-22V104.6
	c0,0-1-21.9-21.7-21.9h-33.6"/>
</svg>
