<?xml version="1.0" encoding="utf-8"?>
<!-- Generator: Adobe Illustrator 21.0.0, SVG Export Plug-In . SVG Version: 6.00 Build 0)  -->
<svg version="1.1" id="Capa_3" xmlns="http://www.w3.org/2000/svg" xmlns:xlink="http://www.w3.org/1999/xlink" x="0px" y="0px"
	 viewBox="0 0 500 500" style="enable-background:new 0 0 500 500;" xml:space="preserve">
<style type="text/css">

		.st0{fill:none;stroke:#000000;stroke-width:10;stroke-linecap:round;stroke-linejoin:round;stroke-miterlimit:2.6131;stroke-dasharray:2100;}

	.st0 {
		stroke-dasharray: 2100;
		stroke-dashoffset: 0;
		animation: dash 10s ease-in-out infinite;
	}

	@keyframes dash {
		0% {
			stroke-dashoffset: 2200;
			stroke: #50bbbd
			}


		20%, 90% {
			stroke-dashoffset: 0;
			stroke: #000000

			}

		100% {
			stroke-dashoffset: 2200;
			stroke: #50bbbd
			}
	}
</style>
<line class="st0" x1="146.6" y1="229.7" x2="59.6" y2="229.7"/>
<path class="st0" d="M59.6,229.7c-6.4,0-11.6,5.2-11.6,11.6"/>
<line class="st0" x1="282.1" y1="229.7" x2="203.7" y2="229.7"/>
<line class="st0" x1="384.1" y1="229.7" x2="314.4" y2="229.7"/>
<path class="st0" d="M353.2,459.1c1.5,0,2.7-1.2,2.7-2.7s-1.2-2.7-2.7-2.7s-2.7,1.2-2.7,2.7C350.4,457.8,351.7,459.1,353.2,459.1"/>
<path class="st0" d="M373.7,459.1c1.5,0,2.7-1.2,2.7-2.7s-1.2-2.7-2.7-2.7s-2.7,1.2-2.7,2.7C370.9,457.8,372.2,459.1,373.7,459.1"/>
<path class="st0" d="M392.5,459.1c1.5,0,2.7-1.2,2.7-2.7s-1.2-2.7-2.7-2.7s-2.7,1.2-2.7,2.7C389.7,457.8,391,459.1,392.5,459.1"/>
<path class="st0" d="M328.5,329.7c0,25.2-20.4,45.6-45.6,45.6s-45.6-20.4-45.6-45.6s20.4-45.6,45.6-45.6S328.5,304.6,328.5,329.7"/>
<path class="st0" d="M314.6,149.6c0,17.5-14.2,31.7-31.7,31.7s-31.7-14.2-31.7-31.7s14.2-31.7,31.7-31.7S314.6,132.1,314.6,149.6"/>
<path class="st0" d="M475,329.7c0,17.5-14.2,31.7-31.7,31.7s-31.7-14.2-31.7-31.7s14.2-31.7,31.7-31.7S475,312.2,475,329.7"/>
<path class="st0" d="M445.5,192c0,11.7-9.5,21.3-21.3,21.3s-21.3-9.5-21.3-21.3s9.5-21.3,21.3-21.3
	C435.9,170.7,445.5,180.2,445.5,192"/>
<path class="st0" d="M120.7,187.1c0,11.8-9.5,21.3-21.3,21.3s-21.3-9.5-21.3-21.3c0-11.7,9.5-21.3,21.3-21.3
	S120.7,175.3,120.7,187.1"/>
<line class="st0" x1="320.2" y1="302" x2="410.2" y2="208.4"/>
<line class="st0" x1="282.9" y1="282.7" x2="282.9" y2="182.1"/>
<polyline class="st0" points="328.5,329.7 392.1,329.7 411.6,329.7 "/>
<line class="st0" x1="115.5" y1="201.5" x2="244.7" y2="302.7"/>
<path class="st0" d="M146.6,229.7h-87c0,0-11.9,0.7-11.9,11.9l0.4,193.2H25v32.8c0,0,1.6,10.3,10.3,10.3h368.2c0,0,13-1.3,13-13
	v-30.1H50.8"/>
<line class="st0" x1="44" y1="456.3" x2="170.9" y2="456.3"/>
<line class="st0" x1="393.4" y1="263.3" x2="393.4" y2="431.4"/>
</svg>
